<svg width="100%" height="100%" viewBox="0 0 1920 400" version="1.1" xmlns="http://www.w3.org/2000/svg" xmlns:xlink="http://www.w3.org/1999/xlink" xml:space="preserve" xmlns:serif="http://www.serif.com/" style="fill-rule:evenodd;clip-rule:evenodd;stroke-linejoin:round;stroke-miterlimit:2;">
    <g transform="matrix(1,0,0,1,12.3871,0)">
        <g id="dark-logo.svg" transform="matrix(0.656427,0,0,0.656427,185.905,203.97)">
            <g transform="matrix(1,0,0,1,-250,-250)">
                <g transform="matrix(1,0,0,1,285.477,440.653)">
                    <g>
                        <g>
                            <path d="M13.5,0C26.583,0 29.167,-10.917 29.167,-21.042L29.167,-29.958C29.167,-47.625 39.083,-64.104 50.604,-64.104C55.167,-64.104 58.146,-61.708 58.146,-57.146C58.146,-49.021 48.813,-35.708 48.813,-20.646C48.813,-9.521 53.188,0 66.271,0C93.063,0 106.563,-38.5 112.917,-49.417C115.083,-53.187 107.146,-59.125 103.979,-54.375C100.021,-48.417 96.25,-44.25 90.292,-44.25C83.938,-44.25 81.167,-47.417 81.167,-54.167C81.167,-64.104 87.521,-70.437 87.521,-80.958C87.521,-90.875 81.75,-99.208 69.646,-99.208C60.917,-99.208 52.979,-95.042 45.646,-87.917C41.271,-83.542 38.104,-84.333 40.292,-92.479C42.667,-101.792 49.604,-112.521 54.771,-124.021C60.521,-136.729 58.146,-142.667 50,-142.667C33.938,-142.667 24.813,-112.312 4.771,-54.375C0.792,-43.062 -1.979,-30.562 -1.979,-20.437C-1.979,-8.729 1.979,0 13.5,0Z" style="fill-rule:nonzero;"/>
                        </g>
                    </g>
                </g>
                <g>
                    <g>
                        <clipPath id="_clip1">
                            <path d="M422.016,389.005L401.599,370.807L422.396,347.469L442.813,365.667L422.016,389.005Z"/>
                        </clipPath>
                        <g clip-path="url(#_clip1)">
                            <g>
                                <clipPath id="_clip2">
                                    <path d="M422.016,389.005L401.599,370.807L422.396,347.469L442.813,365.667L422.016,389.005Z"/>
                                </clipPath>
                                <g clip-path="url(#_clip2)">
                                    <path d="M412.552,380.568C413.016,380.979 413.563,381.385 414.286,381.865C415.016,382.349 415.865,382.693 416.661,382.911C417.411,383.083 418.161,383.172 418.776,383.224L418.729,383.182L418.818,383.177L418.901,383.172L419.078,383.161L419.125,383.203L419.036,383.208L419.125,383.203C419.74,383.255 420.172,383.229 420.609,383.208C421.13,383.177 421.604,383.104 422.036,382.995C422.599,382.917 423.198,382.708 423.932,382.536C424.703,382.318 425.26,382.068 425.771,381.859C426.365,381.563 426.823,381.146 427.323,380.766C427.453,380.719 427.536,380.714 427.667,380.661L427.797,380.609C428.219,380.411 428.646,380.214 429.068,380.01C429.875,379.573 430.583,378.964 431.208,378.448C431.745,377.938 432.245,377.474 432.641,376.839C433.047,376.292 433.531,375.563 433.964,374.708C434.349,373.901 434.615,373.146 434.786,372.391C435.026,371.198 435.219,369.964 435.406,368.734C435.432,368.427 435.5,368.073 435.526,367.766C435.776,366.005 435.865,364.516 435.698,363.125C435.615,362.474 435.521,361.563 435.25,360.661C434.99,359.938 434.682,359.167 434.203,358.411C433.521,357.224 432.589,356.146 431.432,355.031C431.292,354.911 431.203,354.828 431.063,354.703C430.604,354.292 429.958,353.719 429.151,353.328C428.927,353.214 428.708,353.182 428.479,353.063C428.396,353.068 428.302,352.984 428.214,352.99C428.083,352.953 427.948,352.917 427.818,352.88C427.417,352.776 427.016,352.667 426.62,352.557C425.776,352.385 424.859,352.307 424.115,352.307C423.375,352.307 422.635,352.396 421.984,352.474C421.12,352.615 420.344,352.833 419.526,353.01C418.755,353.229 417.984,353.536 417.141,354.021C416.505,354.365 415.964,354.786 415.417,355.208C414.745,355.688 414.078,356.25 413.458,356.849C412.839,357.453 412.26,358.01 411.854,358.557C411.365,359.109 410.969,359.833 410.578,360.641C410.266,361.271 410.042,361.979 409.865,362.646C409.786,362.828 409.75,362.958 409.672,363.141C409.411,363.896 409.193,364.609 409.01,365.271C408.833,366.026 408.656,366.688 408.521,367.396C408.38,368.016 408.255,368.807 408.125,369.604C408.036,370.349 408,371.224 408.047,372.094C408.094,372.88 408.271,373.698 408.49,374.474C408.708,375.245 409.146,375.964 409.443,376.557C409.776,377.104 410.161,377.693 410.677,378.318C411.292,379.115 411.807,379.74 412.359,380.229C412.37,380.406 412.464,380.484 412.552,380.568" style="fill-rule:nonzero;"/>
                                </g>
                            </g>
                        </g>
                    </g>
                </g>
                <g transform="matrix(1,0,0,1,72.5256,419.257)">
                    <g>
                        <g>
                            <path d="M366.792,-368.667C355.083,-368.667 338.688,-363.5 304.958,-363.5C272.625,-363.5 252.958,-367.25 209.396,-367.25C86.188,-367.25 18.271,-310.583 18.271,-244.062C18.271,-209.854 38.417,-178.937 76.833,-178.937C122.271,-178.937 146.625,-219.229 138.188,-239.833C127.875,-239.833 120.396,-249.208 120.396,-261.854C120.396,-291.833 157.854,-304.479 199.563,-304.479C252.958,-304.479 267,-280.125 311.042,-280.125C358.833,-280.125 385.063,-313.375 385.063,-349.458C385.063,-362.104 380.833,-368.667 366.792,-368.667ZM290.438,-193.937C280.125,-193.937 264.667,-193.458 244.521,-193C251.083,-212.208 257.646,-231.875 264.208,-252.958C269.354,-268.417 263.271,-278.25 242.646,-278.25C228.604,-278.25 218.292,-272.167 212.208,-255.771C204.229,-236.083 196.271,-213.604 188.313,-192.062L168.646,-192.062C149.438,-192.062 141,-181.75 141,-168.167C141,-158.333 145.688,-150.833 156.917,-150.833C161.146,-150.833 165.354,-150.375 170.042,-149.896C146.625,-111.021 114.771,-95.083 90.417,-95.083C63.708,-95.083 45.917,-109.146 45.917,-129.75C45.917,-133.042 42.625,-135.375 38.875,-135.375C1.396,-135.375 -23.417,-97.437 -23.417,-59.021C-23.417,-20.146 2.333,19.667 67.458,19.667C126,19.667 176.125,-19.208 211.729,-104.458C216.896,-116.167 221.563,-128.354 225.792,-140.542C237.958,-139.125 251.083,-138.187 266.063,-138.187C298.854,-138.187 313.375,-160.667 313.375,-176.604C313.375,-186.437 309.167,-193.937 290.438,-193.937Z" style="fill-rule:nonzero;"/>
                        </g>
                    </g>
                </g>
            </g>
        </g>
        <g transform="matrix(1.48282,0,0,1.48282,-555.109,19.3852)">
            <g transform="matrix(144,0,0,144,1646.85,174.882)">
            </g>
            <text x="652.387px" y="174.882px" style="font-family:'Gilroy-SemiBold', 'Gilroy';font-weight:600;font-size:144px;">Fabian Herr<tspan x="1426.39px 1510.19px 1556.13px " y="174.882px 174.882px 174.882px ">era</tspan></text>
        </g>
    </g>
</svg>
